<svg height="40" viewBox="0 0 216 40" width="217" xmlns="http://www.w3.org/2000/svg"><path d="m59.441406 23.492188c-.164062-.441407-.25-1.046876-.25-1.820313 0-.777344.265625-3.074219.792969-6.894531.527344-3.808594.789063-6.871094.789063-9.179688 0-.542968-.039063-1.285156-.117188-2.226562 1.363281.074218 2.21875.398437 2.566406.96875.179688.332031.296875.648437.347656.945312.050782.296875.078126.769532.078126 1.414063 0 .632812-.289063 3.042969-.867188 7.226562-.59375 4.179688-.894531 7.164063-.90625 8.945313.089844-.027344.25-.039063.480469-.039063 3.894531 0 6.796875-.269531 8.699219-.8125-.128907 1.046875-.484376 1.859375-1.0625 2.4375-.589844.582031-1.324219.875-2.199219.875-.257813 0-1.035157-.058593-2.332031-.175781-1.3125-.117188-2.578126-.175781-3.800782-.175781-1.21875 0-2.449218.117187-3.683594.351562.246094-.800781.734376-1.414062 1.464844-1.839843zm17.765625-8.988282c-.515625.90625-.914062 1.835938-1.195312 2.789063-.285157.941406-.425781 1.851562-.425781 2.730469 0 .867187.191406 1.601562.578124 2.207031.386719.609375.9375.910156 1.660157.910156 1.015625 0 1.960937-.554687 2.832031-1.664063.890625-1.125 1.570312-2.472656 2.046875-4.046874.476563-1.589844.714844-3.054688.714844-4.398438 0-1.339844-.054688-2.445312-.15625-3.308594.425781-.039062.695312-.058594.808593-.058594 1.53125 0 2.296876.785157 2.296876 2.363282 0 .335937-.21875 1.730468-.65625 4.183594-.425782 2.453124-.636719 4.414062-.636719 5.886718 0 1.46875.277343 2.773438.828125 3.910156-1.128906-.230468-1.953125-.734374-2.46875-1.511718-.511719-.761719-.769532-1.863282-.769532-3.308594 0-.257812.039063-.75.117188-1.472656-.492188 1.714844-1.34375 3.097656-2.566406 4.144531-1.234375 1.058594-2.4375 1.585937-3.605469 1.585937-1.183594 0-2.136719-.449218-2.855469-1.355468-.71875-.890625-1.082031-2.121094-1.082031-3.699219 0-1.585937.296875-3.136719.890625-4.644531.578125-1.511719 1.457031-2.816406 2.640625-3.914063 1.167969-1.109375 2.488281-1.664062 3.953125-1.664062.628906 0 1.324219.128906 2.082031.386719-1.066406.269531-2.042969.769531-2.929687 1.492187-.875.722656-1.574219 1.542969-2.101563 2.457031zm27.171875-8.230468.019532.332031c0 .683593-.257813 2.929687-.769532 6.738281-.515625 3.796875-.773437 6.972656-.773437 9.527344 0 1.136718.058593 2.019531.175781 2.652344-.4375.039062-.675781.058593-.714844.058593-.808594 0-1.414062-.1875-1.8125-.5625-.386718-.375-.578125-.980469-.578125-1.820312 0-.839844.300781-3.40625.90625-7.707031.589844-4.285157.886719-7.34375.886719-9.179688 0-1.832031-.121094-3.035156-.367188-3.601562.578126.078124 1.113282.304687 1.601563.679687.5.359375.875.851563 1.117187 1.46875 1.378907-.734375 2.90625-1.101563 4.589844-1.101563 1.671875 0 2.992188.515626 3.957032 1.546876.960937 1.046874 1.445312 2.324218 1.445312 3.835937 0 1.9375-.699219 3.679687-2.101562 5.230469-1.402344 1.535156-3.292969 2.304687-5.671876 2.304687-.539062 0-1.035156-.035156-1.484374-.097656l-.078126-.871094c1.210938 0 2.265626-.183593 3.164063-.542969.898437-.363281 1.582031-.839843 2.042969-1.433593.914062-1.160157 1.371094-2.519531 1.371094-4.066407 0-1.125-.355469-2.058593-1.0625-2.808593-.707032-.75-1.734376-1.125-3.085938-1.125-.808594 0-1.734375.183593-2.777344.542969zm15.660156 8.230468c-.523437.90625-.929687 1.835938-1.214843 2.789063-.269531.941406-.402344 1.851562-.402344 2.730469 0 .867187.191406 1.601562.578125 2.207031.386719.609375.9375.910156 1.65625.910156 1.003906 0 1.949219-.554687 2.835938-1.664063.875-1.125 1.550781-2.472656 2.027343-4.046874.488281-1.589844.730469-3.054688.730469-4.398438 0-1.339844-.058594-2.445312-.171875-3.308594.4375-.039062.707031-.058594.808594-.058594 1.53125 0 2.296875.785157 2.296875 2.363282 0 .335937-.214844 1.730468-.636719 4.183594-.4375 2.453124-.65625 4.414062-.65625 5.886718 0 1.46875.277344 2.773438.828125 3.910156-1.128906-.230468-1.953125-.734374-2.46875-1.511718-.511719-.761719-.769531-1.863282-.769531-3.308594 0-.257812.039062-.75.113281-1.472656-.488281 1.714844-1.34375 3.097656-2.5625 4.144531-1.222656 1.058594-2.425781 1.585937-3.609375 1.585937-1.179687 0-2.132813-.449218-2.851563-1.355468-.722656-.890625-1.082031-2.121094-1.082031-3.699219 0-1.585937.296875-3.136719.886719-4.644531.582031-1.511719 1.460938-2.816406 2.644531-3.914063 1.183594-1.109375 2.5-1.664062 3.953125-1.664062.628906 0 1.324219.128906 2.082032.386719-1.066407.269531-2.039063.769531-2.910157 1.492187-.886719.722656-1.589843 1.542969-2.105469 2.457031zm25.828126-1.179687c0 .824219-.175782 2.292969-.523438 4.394531-.347656 2.105469-.519531 3.640625-.519531 4.609375 0 .957031.117187 1.648437.347656 2.074219.230469.425781.628906.785156 1.195313 1.082031-.246094.027344-.578126.039063-1.003907.039063-1.222656 0-2.089843-.230469-2.601562-.695313-.515625-.464844-.773438-1.292969-.773438-2.480469 0-.671875.179688-2.019531.539063-4.046875.363281-2.039062.542968-3.539062.542968-4.492187 0-1.1875-.363281-1.78125-1.082031-1.78125-1.15625 0-2.351562 1.019531-3.585937 3.058594-1.234375 2.039062-1.851563 4.5-1.851563 7.378906 0 1.136718.058594 2.019531.171875 2.652344-.476562.039062-.757812.058593-.847656.058593-1.582031 0-2.371094-.78125-2.371094-2.34375 0-.359375.191406-1.75.578125-4.164062.371094-2.425781.558594-4.355469.558594-5.789063 0-1.445312-.152344-2.769531-.460937-3.96875 1.066406.410156 1.8125 1 2.234374 1.761719.425782.773437.636719 1.652344.636719 2.632813 0 .980468-.109375 2.125-.328125 3.425781.59375-2.039063 1.523438-3.753907 2.796875-5.148438 1.261719-1.410156 2.445313-2.113281 3.550781-2.113281 1.863282 0 2.796876 1.285156 2.796876 3.855469zm12.9375-3.058594c0 .746094-.140626 1.269531-.421876 1.566406-.296874.285157-.71875.425781-1.273437.425781h-1.949219c-.074218.476563-.261718 1.601563-.558594 3.371094-.617187 3.355469-.925781 5.894532-.925781 7.609375 0 1.71875.128907 2.859375.386719 3.429688-1.027344-.386719-1.761719-.964844-2.199219-1.726563-.425781-.773437-.636719-1.707031-.636719-2.804687 0-1.113281.066407-2.15625.191407-3.140625.144531-.980469.335937-2.128906.582031-3.445313.253906-1.328125.4375-2.386719.539062-3.175781-1.027343.140625-2.039062.433594-3.027343.871094-.027344-.296875-.039063-.5625-.039063-.792969 0-.867187.28125-1.445313.847656-1.742187.578126-.296876 1.40625-.445313 2.488282-.445313.128906-1.34375.191406-2.34375.191406-3.003906 0-.65625-.003906-1.1875-.019531-1.585938 0-.402343 0-.699219 0-.890625.824219.128906 1.460937.496094 1.910156 1.101563.449219.59375.675781 1.421875.675781 2.480469 0 .542968-.046875 1.199218-.136718 1.972656 1.570312 0 2.675781-.261719 3.320312-.792969.039062.257813.054688.496094.054688.71875zm5.074218 6.464844c.589844-2.039063 1.503906-3.753907 2.738282-5.148438 1.234374-1.410156 2.390624-2.113281 3.472656-2.113281 1.078125 0 1.84375.332031 2.292968.988281.453126.660157.675782 1.554688.675782 2.691407 0 1.125-.171875 2.707031-.519532 4.746093-.347656 2.050781-.519531 3.542969-.519531 4.472657 0 .929687.113281 1.609374.34375 2.035156.234375.425781.625.785156 1.179688 1.082031-.234375.027344-.5625.039063-.984375.039063-1.15625 0-2.011719-.238282-2.566406-.714844-.539063-.480469-.808594-1.296875-.808594-2.460938 0-.671875.179687-2.019531.539062-4.046875.359375-2.039062.539063-3.539062.539063-4.492187 0-1.1875-.417969-1.78125-1.253907-1.78125-.488281 0-1.027343.257812-1.617187.773437-.59375.503907-1.164063 1.195313-1.71875 2.070313-.539063.878906-.996094 1.996094-1.367187 3.351562-.375 1.34375-.5625 2.667969-.5625 3.96875 0 1.320313.058593 2.292969.175781 2.925782-.4375.039062-.683594.058593-.734375.058593-.847656 0-1.472656-.179687-1.871094-.542969-.410156-.359374-.617188-.929687-.617188-1.703124 0-.761719.160157-2.242188.484376-4.433594.949218-6.726563 1.425781-11.835938 1.425781-15.320313 0-1.574219-.101563-2.632812-.308594-3.175781 1.042969.386719 1.773437.949219 2.199219 1.683594.425781.75.636718 1.769531.636718 3.0625 0 .902344-.179687 2.800781-.539062 5.691406-.347656 2.894531-.585938 4.992188-.714844 6.292969zm20.425782-5.847657c-1.082032 0-1.996094.621094-2.738282 1.859376-.761718 1.253906-1.261718 2.71875-1.507812 4.398437h.753906c.953125 0 1.78125-.136719 2.488281-.410156.695313-.269531 1.234375-.617188 1.621094-1.042969.71875-.839844 1.078125-1.78125 1.078125-2.828125 0-.59375-.140625-1.070313-.425781-1.433594-.28125-.363281-.707031-.542969-1.269531-.542969zm3.796874 10.980469c-.820312 1.355469-1.726562 2.304688-2.71875 2.847657-.988281.542968-2.140624.8125-3.453124.8125-1.296876 0-2.433594-.582032-3.414063-1.742188-.976563-1.148438-1.464844-2.777344-1.464844-4.878906 0-2.390625.644531-4.519532 1.929688-6.390625.628906-.90625 1.453125-1.640625 2.46875-2.210938 1.015625-.554687 2.132812-.832031 3.355469-.832031 2.699218 0 4.050781 1.3125 4.050781 3.933594 0 1.574218-.605469 2.808594-1.8125 3.699218-1.222657.890626-2.628907 1.335938-4.226563 1.335938-1.066406 0-2.023437-.097656-2.871094-.292969-.015624.183594-.019531.460938-.019531.832031 0 3.203126.945313 4.804688 2.835938 4.804688 1.773437 0 3.21875-.882812 4.339843-2.652344.667969.089844 1 .335938 1 .734375zm-.539062-14.425781c-.011719.191406-.109375.378906-.289062.5625-.167969.164062-.359376.277344-.578126.328125-.644531-.8125-1.472656-1.613281-2.488281-2.402344-1.015625-.800781-2.050781-1.363281-3.105469-1.683593.039063-.945313.476563-1.6875 1.3125-2.226563.949219.371094 1.933594 1.121094 2.949219 2.246094 1.015625 1.109375 1.75 2.167969 2.199219 3.175781zm7.964844 8.867188c.644531-2.347657 1.421875-4.078126 2.335937-5.1875.910157-1.113282 1.757813-1.667969 2.542969-1.667969s1.371094.292969 1.757812.871093c.398438.59375.597657 1.34375.597657 2.25 0 .902344-.234375 1.683594-.695313 2.339844-.476562.660156-1.164062.988282-2.0625.988282-.285156 0-.507812-.019532-.675781-.058594.617187-.890625.925781-1.792969.925781-2.710938 0-.644531-.265625-.96875-.792968-.96875-.410157 0-.847657.242188-1.308594.71875-.476563.488282-.925782 1.167969-1.351563 2.03125-.4375.878906-.796875 2.007813-1.078125 3.390625-.296875 1.394531-.445312 2.898438-.445312 4.511719 0 .179688.042968.949219.136718 2.304688-.464843.039062-.734374.058593-.8125.058593-1.582031 0-2.371093-.78125-2.371093-2.34375 0-.359375.191406-1.75.578125-4.164062.371094-2.425781.558594-4.355469.558594-5.789063 0-1.445312-.152344-2.769531-.460938-3.96875 1.066406.410156 1.8125 1 2.234375 1.761719.425781.773437.636719 1.671875.636719 2.691406s-.082032 2-.25 2.941407zm15.910156-5.421876c-1.078125 0-1.996094.621094-2.757812 1.859376-.746094 1.253906-1.238282 2.71875-1.484376 4.398437h.753907c.949219 0 1.78125-.136719 2.488281-.410156.691406-.269531 1.234375-.617188 1.617188-1.042969.722656-.839844 1.082031-1.78125 1.082031-2.828125 0-.59375-.140625-1.070313-.425781-1.433594-.28125-.363281-.707032-.542969-1.273438-.542969zm3.800781 10.980469c-.824219 1.355469-1.730469 2.304688-2.71875 2.847657-.992187.542968-2.140625.8125-3.453125.8125-1.296875 0-2.4375-.582032-3.414062-1.742188-.976563-1.148438-1.464844-2.777344-1.464844-4.878906 0-2.390625.644531-4.519532 1.929688-6.390625.628906-.90625 1.453124-1.640625 2.46875-2.210938 1.015624-.554687 2.132812-.832031 3.355468-.832031 2.699219 0 4.050782 1.3125 4.050782 3.933594 0 1.574218-.605469 2.808594-1.8125 3.699218-1.222657.890626-2.632813 1.335938-4.226563 1.335938-1.066406 0-2.023437-.097656-2.871094-.292969-.015625.183594-.019531.460938-.019531.832031 0 3.203126.945312 4.804688 2.832031 4.804688 1.777344 0 3.222657-.882812 4.339844-2.652344.671875.089844 1.003906.335938 1.003906.734375zm0 0"/><g fill="#1d1d1b"><path d="m21.632812 18.246094v-.039063c-.40625-.722656-1.085937-1.25-1.882812-1.464843h-.074219c-.4375-.132813-.886719-.214844-1.339843-.25-1.230469-.167969-2.40625-.605469-3.445313-1.28125-.183594-.109376-.417969-.058594-.539063.121093-.121093.175781-.082031.414063.089844.546875.34375.222656.699219.421875 1.070313.597656 0 .050782-.046875.105469-.0625.164063-.492188 1.730469.5 3.535156 2.222656 4.039063.308594.089843.628906.136718.953125.136718.980469.003906 1.910156-.449218 2.511719-1.226562.046875.539062.011719 1.082031-.097657 1.613281-.042968.105469-.039062.222656.007813.324219.050781.101562.136719.179687.246094.214844.042969.003906.085937.003906.128906 0 .171875-.003907.324219-.113282.378906-.277344.171875-.71875.214844-1.46875.125-2.203125-.03125-.355469-.128906-.703125-.292969-1.015625zm-2.390624-.804688c.015624.09375.015624.1875 0 .28125-.105469.375-.496094.59375-.871094.488282-.371094-.105469-.589844-.496094-.484375-.871094.011719-.03125.027343-.0625.046875-.089844l.320312.035156c.335938.027344.671875.082032.996094.164063zm.5 2.289063c-.574219.296875-1.242188.355469-1.863282.171875-1.300781-.378906-2.054687-1.742188-1.679687-3.050782v-.066406c.296875.117188.601562.214844.910156.296875v.03125c-.171875.546875-.023437 1.144531.386719 1.542969.410156.394531 1.011718.523438 1.546875.332031.539062-.191406.917969-.675781.984375-1.246093.320312.164062.59375.410156.792968.710937-.183593.542969-.5625 1-1.066406 1.277344zm14.519531-3.101563c0-.058594-.042969-.105468-.066407-.164062.371094-.175782.726563-.375 1.070313-.597656.171875-.128907.210937-.371094.089844-.546876-.117188-.179687-.355469-.230468-.539063-.121093-1.039062.679687-2.214844 1.117187-3.445312 1.28125-.457032.035156-.910156.117187-1.347656.253906h-.066407c-.804687.210937-1.488281.742187-1.894531 1.472656v.027344c-.167969.324219-.265625.683594-.289062 1.046875-.089844.738281-.046876 1.484375.121093 2.207031.058594.164063.210938.273438.382813.273438.132812.003906.253906-.058594.332031-.167969.078125-.105469.097656-.246094.054687-.371094-.113281-.527344-.148437-1.074218-.101562-1.613281.601562.78125 1.527344 1.234375 2.511719 1.226563.320312 0 .640625-.042969.953125-.132813.835937-.242187 1.539062-.804687 1.960937-1.570313.417969-.765624.515625-1.664062.273438-2.503906zm-2.839844.65625.320313-.035156c.019531.027344.035156.058594.046874.089844.105469.371094-.109374.753906-.476562.863281-.222656.066406-.46875.015625-.644531-.136719-.179688-.15625-.261719-.390625-.226563-.625.324219-.078125.652344-.132812.984375-.15625zm.390625 2.617188c-.621094.183594-1.289062.125-1.863281-.171875-.507813-.277344-.886719-.734375-1.074219-1.28125.199219-.300781.472656-.542969.792969-.707031.007812.070312.023437.136718.039062.199218.191407.640625.777344 1.078125 1.441407 1.078125.457031-.011719.886718-.230469 1.164062-.597656.277344-.371094.371094-.84375.253906-1.289063v-.035156c.308594-.082031.613282-.179687.910156-.292968v.0625c.363282 1.296874-.378906 2.648437-1.664062 3.035156zm0 0"/><path d="m22.882812 17.609375c-.085937-1.210937-1.070312-1.980469-2.757812-2.109375-.890625-.117188-1.746094-.425781-2.507812-.90625-.183594-.125-.433594-.074219-.558594.113281-.121094.183594-.070313.433594.113281.558594.875.558594 1.863281.914063 2.894531 1.035156.722656.054688 1.941406.308594 2.019532 1.363281.011718.210938.1875.375.402343.375h.023438c.222656-.015624.386719-.207031.371093-.429687zm6.953126-1.308594c1.027343-.121093 2.015624-.476562 2.890624-1.035156.1875-.125.238282-.375.113282-.558594-.121094-.1875-.371094-.238281-.554688-.113281-.761718.488281-1.621094.800781-2.515625.921875-1.664062.128906-2.675781.898437-2.757812 2.109375-.007813.109375.027343.214844.097656.292969.070313.082031.171875.132812.277344.136719h.027343c.210938 0 .386719-.164063.402344-.375.074219-1.085938 1.316406-1.316407 2.019532-1.378907zm-13.214844-2.800781c.089844.117188.234375.175781.378906.152344.144531-.023438.265625-.121094.316406-.257813.050782-.140625.023438-.292969-.074218-.40625l-1.707032-2.105469c-.089844-.117187-.234375-.175781-.378906-.152343-.144531.019531-.265625.121093-.316406.257812-.050782.136719-.023438.292969.074218.402344zm1.800781-1.167969c.058594.15625.207031.257813.375.257813.128906 0 .25-.0625.324219-.171875.074218-.105469.09375-.242188.050781-.363281l-.757813-1.980469c-.078124-.207031-.3125-.3125-.519531-.230469-.207031.078125-.308593.3125-.230469.519531zm2.140625.058594c.210938.003906.386719-.160156.402344-.371094l.132812-1.707031c.011719-.109375-.023437-.214844-.09375-.296875-.070312-.082031-.167968-.132813-.273437-.140625-.109375-.011719-.214844.023438-.296875.09375-.082032.070312-.132813.171875-.136719.277344l-.136719 1.714844c-.007812.113281.03125.222656.109375.304687.074219.082031.183594.128906.292969.125zm0 0"/><path d="m49.117188 26.273438c-2.085938-.664063-7.003907-.605469-11-.425782 2.675781-3.390625 2.675781-6.671875 2.199218-8.214844-.363281-1.15625-.925781-4.074218-.207031-5.207031.132813-.230469.367187-.386719.632813-.414062.941406-.125 1.113281-1.109375 1.246093-1.894531.039063-.28125.101563-.558594.1875-.828126.164063-.289062.386719-.542968.65625-.738281.75-.601562 1.335938-1.382812 1.703125-2.273437.851563-2.101563-.289062-3.140625-.339844-3.183594-.042968-.035156-.09375-.058594-.148437-.070312h-.074219c-.878906-.230469-1.808594-.089844-2.578125.390624-.363281.179688-.8125.394532-1.476562.675782-1.433594.722656-3.164063.433594-4.285157-.710938-2.414062-2.324218-4.109374-2.996094-10.757812-2.996094s-8.324219.675782-10.710938 2.996094c-1.125 1.144532-2.855468 1.433594-4.285156.710938-.5-.210938-.992187-.4375-1.480468-.675782-.769532-.480468-1.699219-.621093-2.574219-.390624h-.078125c-.054688.011718-.105469.035156-.148438.070312-.046875.042969-1.1875 1.074219-.335937 3.183594.363281.890625.953125 1.671875 1.703125 2.273437.265625.195313.488281.449219.652344.738281.054687.28125.085937.5625.089843.851563.132813.789063.300781 1.769531 1.25 1.890625.261719.03125.496094.183594.632813.414062.714844 1.136719.152344 4.050782-.210938 5.207032-.488281 1.542968-.464844 4.839844 2.203125 8.21875-3.996093-.183594-8.914062-.242188-11.003906.425781-.210937.066406-.328125.292969-.257813.507813.066407.210937.292969.328124.503907.261718 2.191406-.699218 8.035156-.539062 11.34375-.355468h.136719l.347656.371093c-4.113282.058594-6.90625.34375-8.304688.847657-.136718.046874-.238281.164062-.265625.308593-.027343.144531.023438.292969.136719.386719s.269531.117188.402344.0625c1.382812-.5 4.449218-.777344 8.871094-.808594.1875.160156.382812.316406.574218.472656-3.464844.191407-9.105468.648438-11.25 1.613282-.183594.097656-.261718.324218-.179687.515625.085937.195312.304687.289062.503906.21875 2.230469-.984375 8.664063-1.417969 11.898437-1.585938l.539063.386719.050781.039062c-3.367187.328126-5.671875.753907-6.851562 1.269532-.183594.097656-.261719.324218-.175782.519531.082032.191406.300782.285156.5.21875 1.109376-.492187 3.453126-.910156 6.8125-1.226563-.015624.992188.105469 1.984376.363282 2.945313.875 2.324219 2.070312 2.894531 3.460937 3.011719.199219.378906.476563.710937.8125.972656-.746093.683594-1.363281 1.5-1.8125 2.40625-.082031.207031.023438.441406.230469.523438.207031.078124.4375-.023438.519531-.234376.144531-.375.578125-1.074218 1.761719-2.253906.339844.175782.699219.316406 1.070312.421875-.261718.585938-.425781 1.207031-.492187 1.84375-.007813.105469.03125.210938.101563.292969.070312.078125.171874.125.277343.132812.214844 0 .390625-.167968.402344-.382812.070313-.589844.234375-1.167969.488281-1.703125 1.160156.191406 2.34375.191406 3.503906 0 .25.539063.414063 1.113281.484376 1.703125.011718.214844.191406.382812.402343.382812.109375-.007812.207031-.054687.277344-.132812.074219-.082031.109375-.1875.105469-.292969-.0625-.636719-.222656-1.261719-.476563-1.851562.367188-.101563.726563-.242188 1.070313-.417969 1.183594 1.179688 1.605468 1.878906 1.761718 2.253906.078126.207032.3125.3125.519532.230469.207031-.078125.308594-.3125.230468-.519531-.453124-.910156-1.066406-1.726563-1.816406-2.40625.335938-.261719.613282-.59375.816406-.972656 1.390626-.117188 2.585938-.683594 3.453126-3.007813.25-.957031.367187-1.941406.347656-2.929687 3.359375.316406 5.710937.734374 6.8125 1.226562.132812.070312.296875.058594.421875-.027344.121093-.085937.1875-.234375.167969-.382812-.023438-.152344-.125-.277344-.265626-.328125-1.191406-.539063-3.535156-.953125-6.964843-1.28125l.429687-.300781.164063-.117188c3.214843.160156 9.75.597656 12.011719 1.613281.195312.070313.414062-.027343.5-.21875.082031-.191406.003906-.417969-.179688-.519531-2.175781-.957031-7.828125-1.40625-11.285156-1.613281.203125-.152344.398437-.308594.59375-.472657 4.433594.027344 7.5.308594 8.886718.8125.207032.070313.429688-.039062.503907-.246093.074219-.203125-.03125-.433594-.230469-.511719-1.394531-.503906-4.183594-.789062-8.304688-.851562l.347657-.371094h.136719c3.292968-.164063 9.152343-.34375 11.34375.355468.226562.070313.46875-.058593.539062-.285156.070312-.230468-.058594-.472656-.289062-.542968zm-22.496094 10.171874c-.109375-.191406-.355469-.257812-.546875-.148437-.195313.113281-.261719.359375-.148438.550781.085938.144532.207031.378906.34375.644532-.929687.136718-1.871093.136718-2.796875 0 .1875-.378907.335938-.636719.34375-.644532.109375-.191406.042969-.4375-.148437-.550781-.191407-.109375-.4375-.042969-.550781.148437 0 .03125-.222657.390626-.464844.894532-.730469-.160156-1.398438-.535156-1.917969-1.078125h1.300781c1.175782-.003907 2.253906-.652344 2.8125-1.6875.566406 1.039062 1.652344 1.6875 2.835938 1.683593h1.300781c-.519531.542969-1.1875.917969-1.917969 1.074219-.242187-.484375-.445312-.839843-.464844-.875zm9.160156-9.285156-.042969.035156c-.449219.375-.949219.742188-1.4375 1.074219h-.414062c.066406-.917969.238281-1.746093.570312-1.996093.179688-.136719.210938-.394532.070313-.574219-.140625-.179688-.394532-.210938-.574219-.070313-.535156.445313-.769531 1.421875-.871094 2.597656h-.328125c-.105468-.003906-.210937.03125-.289062.105469s-.121094.179688-.121094.289063c-.007812.222656.167969.40625.390625.414062h.300781v.394532h-.097656c-.21875-.015626-.410156.148437-.433594.367187-.019531.222656.144532.417969.363282.4375h.113281c.015625.914063-.085938 1.824219-.300781 2.714844-.753907 2.015625-1.660157 2.441406-2.972657 2.507812h-2.023437c-1.324219-.003906-2.40625-1.070312-2.429688-2.398437.1875-.179688.398438-.332032.625-.453125.535156-.34375 1.320313-.816407 1.03125-1.5-.101562-.238281-.03125-.351563.890625-.980469l.335938-.230469c.402343-.214843.664062-.621093.695312-1.074219-.023437-.351562-.210937-.671874-.507812-.863281-.179688-.109375-.417969-.058593-.535157.121094-.105468.179687-.058593.414063.113282.535156.042968.03125.136718.125.144531.199219.003906.074219-.089844.222656-.355469.402344l-.332031.234375c-.871094.589843-1.558594 1.074219-1.175781 1.917969-.042969.136718-.476563.398437-.714844.539062-.210938.125-.410156.261719-.605469.414062-.191406-.152343-.394531-.289062-.605469-.414062-.253906-.140625-.492187-.308594-.710937-.5.378906-.898438-.3125-1.367188-1.179687-1.964844l-.332032-.230468c-.257812-.183594-.351562-.328126-.351562-.402344 0-.078125.09375-.167969.136718-.199219.175782-.125.21875-.367187.105469-.546875-.117187-.179688-.351562-.238281-.539062-.132812-.292969.191406-.480469.511718-.507813.863281.035156.453125.296875.859375.695313 1.074219l.339843.230468c.925782.628906.988282.742188.886719.980469-.289062.6875.476563 1.15625 1.035157 1.5.214843.125.425781.261719.621093.414063-.003906 1.34375-1.09375 2.429687-2.429687 2.429687h-.835938c-1.992187.050781-3.214844.078125-4.167968-2.503906-.214844-.890625-.316407-1.804688-.300782-2.71875h.113282c.222656-.019531.386718-.214844.367187-.4375-.019531-.222657-.214844-.386719-.4375-.367188h-.074219v-.398437h.300782c.21875 0 .398437-.179688.398437-.402344s-.179687-.40625-.398437-.40625h-.328126c-.101562-1.175781-.3125-2.148438-.875-2.597656-.1875-.152344-.460937-.121094-.613281.066406-.152343.1875-.125.464844.0625.617188.332031.265624.488281 1.078124.570313 1.996093h-.511719c-.453125-.34375-.910156-.703125-1.328125-1.074219-.023438-.03125-.050781-.054687-.078125-.078124-.140625-.121094-.28125-.246094-.410156-.371094l1.25.082031h.03125c.222656.007813.410156-.164063.417969-.386719.007812-.222656-.164063-.410156-.386719-.417968 0 0-.839844-.066407-2.140625-.136719-2.914063-3.328125-2.988282-6.5625-2.527344-8.023438 0-.042969 1.246094-4.097656.121094-5.878906-.257813-.421875-.691406-.703125-1.175782-.769531-.335937-.042969-.441406-.539063-.539062-1.230469-.042969-.339844-.125-.671875-.234375-.992187-.203125-.414063-.503906-.773438-.871094-1.046876-.660156-.519531-1.171875-1.199218-1.492187-1.976562-.535156-1.269531-.121094-1.964844.054687-2.191406.390625-.035156.785157.066406 1.109375.289062.035156.03125 4.027344 2.96875 5.777344 2.96875h.1875c-1.605469 1.15625-2.546875 2.636719-2.546875 4.082032 0 .222656.179687.402343.402344.402343.21875 0 .398437-.179687.398437-.402343 0-1.511719 1.394532-3.167969 3.554688-4.226563.839844-.125 1.648437-.398437 2.398437-.800781.128907-.070313.210938-.203125.214844-.347656 0-.148438-.074219-.285157-.199219-.359376-.125-.070312-.28125-.074218-.40625 0-1.257812.625-2.652344.917969-4.050781.851563-.667969 0-1.949219-.652344-3.136719-1.371094 1.691406.761719 3.675782.390625 4.980469-.929687 2.140625-2.054688 3.476563-2.773438 10.175781-2.773438 6.703125 0 8.035156.722656 10.179688 2.773438.8125.832031 1.925781 1.304687 3.089844 1.316406.628906-.007812 1.253906-.132812 1.84375-.367188-1.1875.714844-2.464844 1.363282-3.128907 1.363282-1.402343.0625-2.792969-.230469-4.050781-.851563-.191406-.101562-.433594-.03125-.539062.160157-.105469.191406-.039063.433593.148437.542968.75.410156 1.570313.6875 2.414063.8125 2.144531 1.078125 3.554687 2.691406 3.554687 4.230469 0 .222656.179687.402344.398437.402344.222657 0 .402344-.179688.402344-.402344 0-1.453125-.945312-2.933594-2.546875-4.082031h.234375c1.75 0 5.742188-2.9375 5.777344-2.96875.324219-.222656.714844-.324219 1.105469-.292969.175781.230469.5625.929687.054687 2.195313-.320312.777343-.832031 1.457031-1.492187 1.972656-.367188.277344-.667969.636718-.871094 1.050781-.113281.320313-.191406.652344-.234375.988281-.125.714844-.226562 1.1875-.539062 1.230469-.496094.0625-.941407.351563-1.203126.78125-1.128906 1.78125.105469 5.839844.121094 5.878906.46875 1.46875.386719 4.699219-2.527344 8.023438-1.28125.070312-2.140624.136719-2.140624.136719-.222657.007812-.394532.195312-.386719.417968.007812.222656.195312.398438.417969.386719h.03125l1.25-.078125c-.113282.121094-.28125.25-.429688.378906zm0 0"/><path d="m32.761719 13.652344c.121093-.003906.234375-.058594.308593-.152344l1.710938-2.109375c.09375-.109375.121094-.265625.070312-.402344-.046874-.136719-.167968-.238281-.3125-.257812-.144531-.023438-.292968.035156-.382812.152343l-1.707031 2.105469c-.097657.121094-.117188.289063-.050781.425781.066406.140626.207031.230469.363281.230469zm-1.984375-1.085938c.046875.007813.097656.007813.144531 0 .167969 0 .316406-.105468.375-.261718l.757813-1.976563c.078124-.207031-.023438-.441406-.230469-.523437-.207031-.078126-.441407.023437-.519531.230468l-.757813 1.980469c-.046875.101563-.046875.222656-.003906.324219.042969.105468.128906.1875.234375.226562zm-1.644532-.167968c.109376-.007813.207032-.058594.277344-.140626.066406-.082031.101563-.1875.09375-.296874l-.132812-1.714844c-.019532-.222656-.214844-.386719-.4375-.371094-.21875.019531-.386719.214844-.367188.4375l.132813 1.714844c.007812.105468.058593.207031.140625.277344.082031.066406.1875.101562.292968.09375zm0 0"/><path d="m19.054688 31.027344c0 .3125-.253907.566406-.5625.566406-.3125 0-.5625-.253906-.5625-.566406 0-.308594.25-.5625.5625-.5625.308593 0 .5625.253906.5625.5625zm0 0"/><path d="m19.242188 32.949219c0 .3125-.253907.566406-.5625.566406-.3125 0-.5625-.253906-.5625-.566406s.25-.566407.5625-.566407c.308593 0 .5625.253907.5625.566407zm0 0"/><path d="m20.707031 34.214844c0 .308594-.25.5625-.5625.5625-.308593 0-.5625-.253906-.5625-.5625 0-.3125.253907-.566406.5625-.566406.3125 0 .5625.253906.5625.566406zm0 0"/><path d="m21.199219 32.25c0 .3125-.25.566406-.5625.566406-.308594 0-.5625-.253906-.5625-.566406s.253906-.566406.5625-.566406c.3125 0 .5625.253906.5625.566406zm0 0"/><path d="m22.765625 33.238281c0 .3125-.253906.566407-.5625.566407-.3125 0-.5625-.253907-.5625-.566407s.25-.5625.5625-.5625c.308594 0 .5625.25.5625.5625zm0 0"/><path d="m31.769531 31.027344c0 .3125-.253906.566406-.5625.566406-.3125 0-.5625-.253906-.5625-.566406 0-.308594.25-.5625.5625-.5625.308594 0 .5625.253906.5625.5625zm0 0"/><path d="m31.582031 32.949219c0 .3125-.253906.566406-.5625.566406-.3125 0-.5625-.253906-.5625-.566406s.25-.566407.5625-.566407c.308594 0 .5625.253907.5625.566407zm0 0"/><path d="m30.113281 34.214844c0 .308594-.25.5625-.5625.5625-.308593 0-.5625-.253906-.5625-.5625 0-.3125.253907-.566406.5625-.566406.3125 0 .5625.253906.5625.566406zm0 0"/><path d="m29.621094 32.25c0 .3125-.25.566406-.5625.566406-.308594 0-.5625-.253906-.5625-.566406s.253906-.566406.5625-.566406c.3125 0 .5625.253906.5625.566406zm0 0"/><path d="m28.058594 33.238281c0 .3125-.253906.566407-.5625.566407-.3125 0-.5625-.253907-.5625-.566407s.25-.5625.5625-.5625c.308594 0 .5625.25.5625.5625zm0 0"/><path d="m26.753906 21.703125c-.105468-.007813-.210937.023437-.292968.09375-.082032.070313-.132813.167969-.140626.277344-.152343 1.105469-.667968 2.125-1.472656 2.898437-.800781-.773437-1.316406-1.796875-1.460937-2.902344-.019531-.226562-.210938-.390624-.433594-.371093-.222656.015625-.386719.210937-.371094.433593.195313 1.433594.90625 2.746094 2 3.691407.070313.058593.160157.089843.25.089843.09375 0 .179688-.03125.253907-.089843 1.089843-.945313 1.800781-2.257813 1.996093-3.691407.015625-.207031-.125-.390624-.328125-.429687zm-7.0625 1.453125c-.191406-.105469-.425781-.039062-.535156.144531-.109375.1875-.246094.386719-.394531.597657-.714844 1.042968-1.796875 2.625-.269531 4.300781.152343.128906.378906.125.527343-.007813.148438-.136718.175781-.363281.058594-.53125-1.011719-1.101562-.496094-2.050781.34375-3.277344.15625-.234374.304687-.449218.421875-.652343.0625-.097657.082031-.210938.050781-.324219-.03125-.109375-.105469-.199219-.203125-.25zm10.882813.144531c-.109375-.195312-.355469-.261719-.546875-.148437-.195313.109375-.261719.359375-.148438.550781.117188.203125.265625.417969.421875.652344.839844 1.226562 1.355469 2.175781.34375 3.28125-.121093.097656-.171875.261719-.128906.414062.039063.148438.164063.265625.320313.289063.152343.027344.308593-.039063.398437-.167969 1.527344-1.660156.445313-3.226563-.273437-4.300781-.132813-.183594-.273438-.382813-.386719-.570313zm-10.070313 5.125c.070313-.210937-.046875-.441406-.257812-.507812-.214844-.070313-.441406.046875-.507813.261719-.308593.996093.117188 2.078124 1.023438 2.589843.191406.113281.4375.046875.550781-.148437.109375-.191406.042969-.4375-.148438-.550782-.578124-.324218-.855468-1.007812-.660156-1.644531zm8.425782 2.328125c.90625-.515625 1.332031-1.59375 1.023437-2.589844-.066406-.214843-.292969-.332031-.507813-.261718-.210937.066406-.324218.296875-.257812.507812.1875.628906-.085938 1.308594-.660156 1.628906-.191406.113282-.257813.359376-.144532.550782.109376.195312.355469.261718.546876.148437zm-2.539063-2.246094c-.390625.445313-.953125.703126-1.542969.703126-.59375 0-1.15625-.257813-1.546875-.703126-.148437-.171874-.40625-.191406-.578125-.042968-.171875.148437-.191406.40625-.042968.578125.539062.636719 1.332031 1 2.164062 1s1.621094-.363281 2.164062-1c.148438-.171875.128907-.429688-.042968-.578125-.171875-.148438-.429688-.128906-.578125.042968zm-11.980469-7.871093c-.128906-.082031-.289062-.089844-.421875-.011719-.132812.074219-.210937.214844-.203125.367188.007813.152343.097656.289062.238282.351562 1.410156.777344 2.019531 1.929688 2.019531 2.34375 0 .222656.179687.402344.402343.402344.222657 0 .402344-.179688.402344-.402344 0-.832031-.914062-2.207031-2.4375-3.050781zm21.46875.164062c-.105468-.191406-.34375-.261719-.535156-.164062-1.539062.84375-2.460938 2.21875-2.460938 3.054687 0 .222656.179688.40625.402344.40625s.402344-.183594.402344-.40625c0-.414062.609375-1.570312 2.019531-2.34375.09375-.050781.167969-.136718.199219-.238281s.023438-.214844-.027344-.308594zm0 0"/></g><path d="m61.136719 30.652344-.488281-1.234375h-1.871094l-.488282 1.234375h-.3125l1.5625-3.925782h.351563l1.558594 3.925782zm-2.25-1.503906h1.65625l-.683594-1.710938-.144531-.417969h-.003906l-.144532.402344zm7.660156-.417969h1.605469v1.921875h-.238282l-.011718-.683594c-.105469.238281-.273438.421875-.5.550781-.226563.128907-.507813.191407-.84375.191407-.355469 0-.667969-.082032-.929688-.246094-.269531-.164063-.476562-.398438-.621094-.707032-.140624-.304687-.214843-.660156-.214843-1.070312 0-.40625.074219-.761719.226562-1.070312.144531-.304688.351563-.539063.621094-.703126.265625-.164062.578125-.246093.933594-.246093.402343 0 .726562.078125.976562.238281.253907.15625.445313.398438.574219.726562l-.277344.136719c-.089844-.269531-.242187-.476562-.457031-.617187-.214844-.144532-.484375-.214844-.816406-.214844-.289063 0-.546875.070312-.769531.214844-.21875.140625-.390626.34375-.511719.605468-.125.265626-.1875.574219-.1875.929688 0 .546875.128906.972656.390625 1.285156.257812.3125.617187.464844 1.074218.464844.285157 0 .527344-.054688.722657-.167969.199219-.113281.34375-.261719.4375-.445312.09375-.183594.144531-.382813.144531-.597657v-.214843h-1.328125zm5.914063 1.648437h2.464843v.273438h-2.761719v-3.925782h2.667969v.269532h-2.371093v1.519531h1.875v.28125h-1.875zm9.289062-3.652344v3.925782h-.367188l-2.074218-3.082032-.285156-.519531h-.007813l.019531.492188v3.109375h-.289062v-3.925782h.378906l2.0625 3.074219.296875.527344-.011719-.492187v-3.109376zm7.289062 2.929688c-.113281.335938-.304687.59375-.578124.777344-.277344.1875-.605469.277344-.984376.277344-.355468 0-.667968-.082032-.941406-.246094-.265625-.164063-.472656-.398438-.621094-.707032-.144531-.304687-.214843-.660156-.214843-1.070312 0-.40625.070312-.761719.214843-1.070312.148438-.304688.355469-.539063.621094-.703126.273438-.164062.582032-.246093.933594-.246093.78125 0 1.285156.320312 1.519531.96875l-.292969.132812c-.089843-.277343-.234374-.484375-.4375-.621093-.199218-.140626-.457031-.210938-.773437-.210938-.289063 0-.546875.070312-.769531.214844-.222656.140625-.398438.34375-.519532.605468-.121093.265626-.183593.574219-.183593.929688 0 .359375.0625.667969.183593.933594.117188.261718.285157.464844.507813.605468.21875.140626.476563.210938.773437.210938.316407 0 .582032-.074219.804688-.230469.21875-.15625.371094-.375.460938-.660156zm4.128907.722656h2.46875v.273438h-2.765625v-3.925782h2.667968v.269532h-2.371093v1.519531h1.878906v.28125h-1.878906zm12.335937-3.652344c.625 0 1.105469.164063 1.445313.496094.335937.332032.503906.8125.503906 1.4375 0 .640625-.167969 1.136719-.503906 1.476563-.339844.34375-.820313.515625-1.445313.515625h-1.230468v-3.925782zm.027344 3.652344c.519531 0 .917969-.148437 1.195312-.445312.28125-.292969.417969-.71875.417969-1.273438 0-.535156-.136719-.941406-.417969-1.230468-.277343-.289063-.675781-.433594-1.195312-.433594h-.960938v3.382812zm6.171875 0h2.464844v.273438h-2.761719v-3.925782h2.671875v.269532h-2.375v1.519531h1.875v.28125h-1.875zm13.039063-2.480468-.785157 2.753906h-.367187l-1.21875-3.925782h.320312l1.082032 3.683594 1.023437-3.683594h.34375l1.023437 3.6875 1.097657-3.6875h.304687l-1.222656 3.925782h-.363281l-.792969-2.753906-.214844-.847657h-.007812zm6.871093 2.480468h2.472657v.273438h-2.769532v-3.925782h2.675782v.269532h-2.378907v1.519531h1.878907v.28125h-1.878907zm6.292969.273438v-3.925782h1.378906c.429688 0 .75.089844.960938.265626.207031.179687.3125.4375.3125.773437 0 .230469-.0625.425781-.1875.582031-.121094.160156-.300782.261719-.527344.3125v.003906c.253906.039063.453125.140626.601562.308594.148438.167969.222657.375.222657.621094 0 .335938-.117188.597656-.359375.78125-.238282.183594-.582032.277344-1.023438.277344zm.296875-2.117188h1.089844c.636719 0 .953125-.253906.953125-.769531 0-.511719-.316406-.769531-.953125-.769531h-1.089844zm0 1.84375h1.140625c.332031 0 .585938-.066406.753906-.203125.167969-.136719.253906-.328125.253906-.582031 0-.257812-.085937-.453125-.253906-.585938-.167968-.132812-.421875-.199218-.753906-.199218h-1.140625zm12.453125-3.652344c.628906 0 1.109375.164063 1.445312.496094.339844.332032.507813.8125.507813 1.4375 0 .640625-.167969 1.136719-.507813 1.476563-.335937.34375-.816406.515625-1.445312.515625h-1.230469v-3.925782zm.027344 3.652344c.523437 0 .921875-.148437 1.203125-.445312.273437-.292969.414062-.71875.414062-1.273438 0-.535156-.140625-.941406-.414062-1.230468-.28125-.289063-.679688-.433594-1.203125-.433594h-.960938v3.382812zm6.171875 0h2.472656v.273438h-2.769531v-3.925782h2.671875v.269532h-2.375v1.519531h1.878906v.28125h-1.878906zm7.5-3.710937c.734375 0 1.226562.289062 1.476562.867187l-.253906.207032c-.101563-.28125-.25-.484376-.445313-.613282-.195312-.125-.453124-.191406-.769531-.191406-.230469 0-.433593.039062-.601562.113281-.167969.070313-.296875.164063-.386719.289063-.089844.121094-.132812.261718-.132812.414062s.039062.273438.113281.375c.074219.097656.199219.183594.382812.253906.179688.066407.425781.128907.742188.1875.507812.085938.871093.214844 1.082031.382813.214844.164063.320312.394531.320312.6875 0 .210937-.0625.394531-.183593.5625-.121094.160156-.292969.285156-.515625.371094-.226563.089843-.484375.136719-.769532.136719-.410156 0-.753906-.082032-1.039062-.246094-.28125-.164063-.476562-.394532-.578125-.691406l.261719-.203126c.078125.28125.238281.496094.476562.644532.238282.148437.535156.222656.886719.222656.339844 0 .613281-.066406.828125-.207031.21875-.136719.328125-.328125.328125-.574219 0-.207031-.089844-.375-.269531-.496094-.171875-.125-.476563-.222656-.914063-.296875-.363281-.066406-.65625-.144531-.871093-.234375-.210938-.089844-.363282-.203125-.457032-.339844-.089844-.132812-.136718-.300781-.136718-.503906s.054687-.386718.171874-.558594c.117188-.171874.28125-.308593.5-.40625.214844-.101562.464844-.152343.753907-.152343zm5.714843.058593v3.925782h-.296874v-3.925782zm5.699219 2.003907h1.601563v1.921875h-.234375l-.007813-.683594c-.109375.238281-.277344.421875-.503906.550781-.226562.128907-.507812.191407-.84375.191407-.355469 0-.667969-.082032-.933594-.246094-.265625-.164063-.46875-.398438-.613281-.707032-.144531-.304687-.214844-.660156-.214844-1.070312 0-.40625.070313-.761719.21875-1.070312.148438-.304688.359375-.539063.625-.703126.269531-.164062.582031-.246093.9375-.246093.394531 0 .722657.078125.976563.238281.253906.15625.441406.398438.566406.726562l-.269531.136719c-.09375-.269531-.246094-.476562-.457031-.617187-.21875-.144532-.492188-.214844-.816407-.214844-.296875 0-.550781.070312-.773437.214844-.21875.140625-.390625.34375-.515625.605468-.121094.265626-.179688.574219-.179688.929688 0 .546875.128907.972656.386719 1.285156s.617188.464844 1.074219.464844c.285156 0 .523437-.054688.722656-.167969.195313-.113281.34375-.261719.4375-.445312.097656-.183594.144531-.382813.144531-.597657v-.214843h-1.328125zm8.617188-2.003907v3.925782h-.367188l-2.074219-3.082032-.285156-.519531h-.007812l.015625.492188v3.109375h-.285157v-3.925782h.375l2.066407 3.074219.296875.527344-.011719-.492187v-3.109376zm0 0"/></svg>